<svg width="170" height="83" viewBox="0 0 170 83" fill="none" xmlns="http://www.w3.org/2000/svg">
<path d="M127 19V64M168.16 81.8317H137.164C136.702 81.8317 136.324 81.453 136.324 80.9901C136.324 75.4779 131.998 71.0177 126.664 71.0177C121.33 71.0177 117.004 75.4779 117.004 80.9901C117.004 81.453 116.626 81.8317 116.164 81.8317H1.84C1.378 81.8317 1 81.453 1 80.9901V1.84156C1 1.3787 1.378 1 1.84 1H116.164C116.626 1 117.004 1.3787 117.004 1.84156C117.004 7.35377 121.33 11.814 126.664 11.814C131.998 11.814 136.324 7.35377 136.324 1.84156C136.324 1.3787 136.702 1 137.164 1H168.16C168.622 1 169 1.3787 169 1.84156V80.9901C169 81.453 168.622 81.8317 168.16 81.8317ZM138.004 80.1486H167.32V2.68312H138.004C137.584 8.70026 132.67 13.4971 126.706 13.4971C120.742 13.4971 115.786 8.74234 115.366 2.68312H2.68V80.1486H115.324C115.744 74.1314 120.658 69.3345 126.622 69.3345C132.586 69.3345 137.542 74.1314 138.004 80.1486Z" stroke="#595959" stroke-width="2" stroke-dasharray="6 6"/>
</svg>
