<svg width="29" height="24" viewBox="0 0 29 24" fill="none" xmlns="http://www.w3.org/2000/svg">
<path d="M14.0762 8.03812C14.6285 8.03812 15.0762 7.59041 15.0762 7.03812C15.0762 5.35604 15.7629 3.88236 16.8547 2.78823C17.9923 1.68356 19.4719 1 21.1144 1C22.7965 1 24.2702 1.68671 25.3643 2.77854C26.469 3.9161 27.1525 5.39572 27.1525 7.03812C27.1525 8.7227 26.4638 10.1983 25.3691 11.2929L14.0762 22.5858L2.78835 11.2979C1.68361 10.1603 1 8.68061 1 7.03812C1 5.35602 1.6867 3.88232 2.77853 2.78818C3.91609 1.68355 5.39571 1 7.03812 1C8.72023 1 10.1939 1.68671 11.2881 2.77854C12.3927 3.9161 13.0762 5.39572 13.0762 7.03812C13.0762 7.59041 13.524 8.03812 14.0762 8.03812Z" stroke="white" stroke-width="2" stroke-linejoin="round"/>
</svg>
