<svg width="168" height="81" viewBox="0 0 168 81" fill="none" xmlns="http://www.w3.org/2000/svg">
<g clip-path="url(#clip0_1009_733)">
<path d="M167.16 80.8317H136.164C135.702 80.8317 135.324 80.453 135.324 79.9901C135.324 74.4779 130.998 70.0177 125.664 70.0177C120.33 70.0177 116.004 74.4779 116.004 79.9901C116.004 80.453 115.626 80.8317 115.164 80.8317H0.84C0.378 80.8317 0 80.453 0 79.9901V0.841558C0 0.378701 0.378 0 0.84 0H115.164C115.626 0 116.004 0.378701 116.004 0.841558C116.004 6.35377 120.33 10.814 125.664 10.814C130.998 10.814 135.324 6.35377 135.324 0.841558C135.324 0.378701 135.702 0 136.164 0H167.16C167.622 0 168 0.378701 168 0.841558V79.9901C168 80.453 167.622 80.8317 167.16 80.8317ZM137.004 79.1486H166.32V1.68312H137.004C136.584 7.70026 131.67 12.4971 125.706 12.4971C119.742 12.4971 114.786 7.74234 114.366 1.68312H1.68V79.1486H114.324C114.744 73.1314 119.658 68.3345 125.622 68.3345C131.586 68.3345 136.542 73.1314 137.004 79.1486Z" fill="#666666"/>
<mask id="mask0_1009_733" style="mask-type:luminance" maskUnits="userSpaceOnUse" x="0" y="0" width="168" height="81">
<path d="M167.16 80.8317H136.164C135.702 80.8317 135.324 80.453 135.324 79.9901C135.324 74.4779 130.998 70.0177 125.664 70.0177C120.33 70.0177 116.004 74.4779 116.004 79.9901C116.004 80.453 115.626 80.8317 115.164 80.8317H0.84C0.378 80.8317 0 80.453 0 79.9901V0.841558C0 0.378701 0.378 0 0.84 0H115.164C115.626 0 116.004 0.378701 116.004 0.841558C116.004 6.35377 120.33 10.814 125.664 10.814C130.998 10.814 135.324 6.35377 135.324 0.841558C135.324 0.378701 135.702 0 136.164 0H167.16C167.622 0 168 0.378701 168 0.841558V79.9901C168 80.453 167.622 80.8317 167.16 80.8317ZM137.004 79.1486H166.32V1.68312H137.004C136.584 7.70026 131.67 12.4971 125.706 12.4971C119.742 12.4971 114.786 7.74234 114.366 1.68312H1.68V79.1486H114.324C114.744 73.1314 119.658 68.3345 125.622 68.3345C131.586 68.3345 136.542 73.1314 137.004 79.1486Z" fill="black"/>
</mask>
<g mask="url(#mask0_1009_733)">
<path d="M137.004 79.1486L129.027 79.761L129.595 87.1486H137.004V79.1486ZM166.32 79.1486V87.1486H174.32V79.1486H166.32ZM166.32 1.68312H174.32V-6.31688H166.32V1.68312ZM137.004 1.68312V-6.31688H129.543L129.023 1.12607L137.004 1.68312ZM114.366 1.68312L122.347 1.12992L121.831 -6.31688H114.366V1.68312ZM1.68 1.68312V-6.31688H-6.32V1.68312H1.68ZM1.68 79.1486H-6.32V87.1486H1.68V79.1486ZM114.324 79.1486V87.1486H121.785L122.305 79.7056L114.324 79.1486ZM167.16 72.8317H136.164V88.8317H167.16V72.8317ZM136.164 72.8317C140.134 72.8317 143.324 76.0488 143.324 79.9901H127.324C127.324 84.8572 131.27 88.8317 136.164 88.8317V72.8317ZM143.324 79.9901C143.324 70.2986 135.652 62.0177 125.664 62.0177V78.0177C126.344 78.0177 127.324 78.6572 127.324 79.9901H143.324ZM125.664 62.0177C115.676 62.0177 108.004 70.2986 108.004 79.9901H124.004C124.004 78.6572 124.984 78.0177 125.664 78.0177V62.0177ZM108.004 79.9901C108.004 76.0488 111.194 72.8317 115.164 72.8317V88.8317C120.058 88.8317 124.004 84.8572 124.004 79.9901H108.004ZM115.164 72.8317H0.84V88.8317H115.164V72.8317ZM0.84 72.8317C4.81028 72.8317 8 76.0487 8 79.9901H-8C-8 84.8573 -4.05428 88.8317 0.84 88.8317V72.8317ZM8 79.9901V0.841558H-8V79.9901H8ZM8 0.841558C8 4.78299 4.81025 8 0.84 8V-8C-4.05425 -8 -8 -4.02559 -8 0.841558H8ZM0.84 8H115.164V-8H0.84V8ZM115.164 8C111.194 8 108.004 4.78295 108.004 0.841558H124.004C124.004 -4.02554 120.058 -8 115.164 -8V8ZM108.004 0.841558C108.004 10.5331 115.676 18.814 125.664 18.814V2.81403C124.984 2.81403 124.004 2.17445 124.004 0.841558H108.004ZM125.664 18.814C135.652 18.814 143.324 10.5331 143.324 0.841558H127.324C127.324 2.17445 126.344 2.81403 125.664 2.81403V18.814ZM143.324 0.841558C143.324 4.78295 140.134 8 136.164 8V-8C131.27 -8 127.324 -4.02554 127.324 0.841558H143.324ZM136.164 8H167.16V-8H136.164V8ZM167.16 8C163.19 8 160 4.78314 160 0.841558H176C176 -4.02573 172.054 -8 167.16 -8V8ZM160 0.841558V79.9901H176V0.841558H160ZM160 79.9901C160 76.0486 163.19 72.8317 167.16 72.8317V88.8317C172.054 88.8317 176 84.8574 176 79.9901H160ZM137.004 87.1486H166.32V71.1486H137.004V87.1486ZM174.32 79.1486V1.68312H158.32V79.1486H174.32ZM166.32 -6.31688H137.004V9.68312H166.32V-6.31688ZM129.023 1.12607C128.88 3.18547 127.237 4.49714 125.706 4.49714V20.4971C136.103 20.4971 144.288 12.2151 144.985 2.24017L129.023 1.12607ZM125.706 4.49714C124.116 4.49714 122.488 3.16823 122.347 1.12992L106.385 2.23632C107.084 12.3164 115.368 20.4971 125.706 20.4971V4.49714ZM114.366 -6.31688H1.68V9.68312H114.366V-6.31688ZM-6.32 1.68312V79.1486H9.68V1.68312H-6.32ZM1.68 87.1486H114.324V71.1486H1.68V87.1486ZM122.305 79.7056C122.448 77.6462 124.091 76.3345 125.622 76.3345V60.3345C115.225 60.3345 107.04 68.6166 106.343 78.5915L122.305 79.7056ZM125.622 76.3345C127.181 76.3345 128.868 77.6849 129.027 79.761L144.981 78.5361C144.216 68.578 135.991 60.3345 125.622 60.3345V76.3345Z" fill="black"/>
</g>
<path d="M126 18V63" stroke="#595959" stroke-width="2" stroke-dasharray="6 6"/>
<path d="M25.344 43.256C22.8 43.256 21 41.144 21 37.592C21 34.04 22.8 32 25.344 32C27.888 32 29.688 34.04 29.688 37.592C29.688 41.144 27.888 43.256 25.344 43.256ZM25.344 41.264C26.376 41.264 27.168 40.184 27.168 37.592C27.168 34.976 26.376 33.992 25.344 33.992C24.288 33.992 23.496 34.976 23.496 37.592C23.496 40.184 24.288 41.264 25.344 41.264ZM25.92 50.408L35.568 32H37.68L28.008 50.408H25.92ZM38.256 50.408C35.736 50.408 33.936 48.32 33.936 44.744C33.936 41.192 35.736 39.128 38.256 39.128C40.776 39.128 42.576 41.192 42.576 44.744C42.576 48.32 40.776 50.408 38.256 50.408ZM38.256 48.416C39.288 48.416 40.104 47.36 40.104 44.744C40.104 42.128 39.288 41.144 38.256 41.144C37.224 41.144 36.408 42.128 36.408 44.744C36.408 47.36 37.224 48.416 38.256 48.416Z" fill="#555555"/>
<path d="M55.4263 50.408C52.6183 50.408 50.7463 49.304 49.4023 47.984L51.0583 45.752C52.0423 46.736 53.3143 47.552 54.9463 47.552C56.8183 47.552 58.0903 46.376 58.0903 44.264C58.0903 42.2 56.8903 41.048 55.1143 41.048C54.0583 41.048 53.4823 41.312 52.4503 41.984L50.8183 40.928L51.3223 32.312H60.8263V35.264H54.3703L54.0343 39.032C54.7303 38.72 55.3543 38.552 56.1703 38.552C59.1463 38.552 61.6423 40.304 61.6423 44.192C61.6423 48.128 58.6903 50.408 55.4263 50.408Z" fill="#555555"/>
<path d="M70.0396 50.408C66.4156 50.408 64.0156 47.264 64.0156 41.12C64.0156 35 66.4156 32 70.0396 32C73.6396 32 76.0396 35 76.0396 41.12C76.0396 47.264 73.6396 50.408 70.0396 50.408ZM70.0396 47.648C71.5756 47.648 72.7036 46.112 72.7036 41.12C72.7036 36.152 71.5756 34.712 70.0396 34.712C68.5036 34.712 67.3516 36.152 67.3516 41.12C67.3516 46.112 68.5036 47.648 70.0396 47.648Z" fill="#555555"/>
<path d="M84.1959 50.408C80.5719 50.408 78.1719 47.264 78.1719 41.12C78.1719 35 80.5719 32 84.1959 32C87.7959 32 90.1959 35 90.1959 41.12C90.1959 47.264 87.7959 50.408 84.1959 50.408ZM84.1959 47.648C85.7319 47.648 86.8599 46.112 86.8599 41.12C86.8599 36.152 85.7319 34.712 84.1959 34.712C82.6599 34.712 81.5079 36.152 81.5079 41.12C81.5079 46.112 82.6599 47.648 84.1959 47.648Z" fill="#555555"/>
<path d="M98.3521 50.408C94.7281 50.408 92.3281 47.264 92.3281 41.12C92.3281 35 94.7281 32 98.3521 32C101.953 32 104.353 35 104.353 41.12C104.353 47.264 101.953 50.408 98.3521 50.408ZM98.3521 47.648C99.8881 47.648 101.017 46.112 101.017 41.12C101.017 36.152 99.8881 34.712 98.3521 34.712C96.8161 34.712 95.6641 36.152 95.6641 41.12C95.6641 46.112 96.8161 47.648 98.3521 47.648Z" fill="#555555"/>
</g>
<defs>
<clipPath id="clip0_1009_733">
<rect width="168" height="81" fill="white"/>
</clipPath>
</defs>
</svg>
