<svg width="20" height="30" viewBox="0 0 20 30" fill="none" xmlns="http://www.w3.org/2000/svg">
<path d="M0.888228 0.789275C0.606664 1.03784 0.383281 1.33309 0.230867 1.65811C0.078453 1.98314 0 2.33157 0 2.68345C0 3.03534 0.078453 3.38377 0.230867 3.70879C0.383281 4.03382 0.606664 4.32907 0.888228 4.57763L12.6728 15.0023L0.888228 25.427C0.320329 25.9294 0.00128607 26.6108 0.00128607 27.3212C0.00128607 28.0317 0.320329 28.713 0.888228 29.2154C1.45613 29.7178 2.22636 30 3.02949 30C3.83263 30 4.60286 29.7178 5.17076 29.2154L19.1118 16.8831C19.3933 16.6345 19.6167 16.3393 19.7691 16.0142C19.9216 15.6892 20 15.3408 20 14.9889C20 14.637 19.9216 14.2886 19.7691 13.9636C19.6167 13.6385 19.3933 13.3433 19.1118 13.0947L5.17076 0.762406C4.0166 -0.25857 2.07276 -0.258569 0.888228 0.789275Z" fill="white"/>
</svg>
