<svg width="20" height="30" viewBox="0 0 20 30" fill="none" xmlns="http://www.w3.org/2000/svg">
<path d="M19.1118 0.789275C19.3933 1.03784 19.6167 1.33309 19.7691 1.65811C19.9215 1.98314 20 2.33157 20 2.68345C20 3.03534 19.9215 3.38377 19.7691 3.70879C19.6167 4.03382 19.3933 4.32907 19.1118 4.57763L7.32721 15.0023L19.1118 25.427C19.6797 25.9294 19.9987 26.6108 19.9987 27.3212C19.9987 28.0317 19.6797 28.713 19.1118 29.2154C18.5439 29.7178 17.7736 30 16.9705 30C16.1674 30 15.3971 29.7178 14.8292 29.2154L0.888225 16.8831C0.606661 16.6345 0.383278 16.3393 0.230864 16.0142C0.07845 15.6892 -8.8296e-08 15.3408 -8.8296e-08 14.9889C-8.8296e-08 14.637 0.07845 14.2886 0.230864 13.9636C0.383278 13.6385 0.606661 13.3433 0.888225 13.0947L14.8292 0.762406C15.9834 -0.25857 17.9272 -0.258569 19.1118 0.789275Z" fill="white"/>
</svg>
